<svg xmlns="http://www.w3.org/2000/svg" viewBox="0 0 72.05 96.05"><defs><style>.cls-1{fill:#fff;}</style></defs><title>Asset 45</title><g id="Layer_2" data-name="Layer 2"><g id="Layer_1-2" data-name="Layer 1"><path class="cls-1" d="M34,0h4.12c.71.12,1.41.26,2.11.37C50.47,2,59,11,59.82,21.33c.36,4.38.17,8.81.22,13.22,0,.46,0,.92,0,1.47h2.5c5.65,0,9.5,3.83,9.5,9.46q0,20.54,0,41.08c0,5.64-3.85,9.48-9.48,9.49H45.69q-18.24,0-36.49,0A8.94,8.94,0,0,1,0,87.21Q0,66,0,44.82A8.8,8.8,0,0,1,7.47,36.2,44.22,44.22,0,0,1,12,35.94v-1c0-3.78,0-7.57,0-11.35A23.91,23.91,0,0,1,28.33,1.31C30.16.71,32.09.43,34,0ZM52,36c0-3.17,0-6.26,0-9.34a39.12,39.12,0,0,0-.25-5.42,16,16,0,0,0-31.72,3c0,3.62,0,7.25,0,10.87,0,.3,0,.59,0,.9ZM36,52a8.06,8.06,0,0,0-7.59,5.52,7.84,7.84,0,0,0,2.84,8.84,1.7,1.7,0,0,1,.8,1.61c0,2.57,0,5.13,0,7.69a5.6,5.6,0,0,0,.16,1.48A4,4,0,0,0,36.42,80,3.9,3.9,0,0,0,40,76.21c.06-2.72,0-5.44,0-8.15a1.8,1.8,0,0,1,.82-1.7,7.8,7.8,0,0,0,2.8-8.85A8,8,0,0,0,36,52Z"/></g></g></svg>