<svg xmlns="http://www.w3.org/2000/svg" viewBox="0 0 83.98 111.95"><defs><style>.cls-1{fill:#fff;}</style></defs><title>Asset 51</title><g id="Layer_2" data-name="Layer 2"><g id="Layer_1-2" data-name="Layer 1"><path class="cls-1" d="M75,112H9c-.37-.12-.73-.26-1.11-.36A10.35,10.35,0,0,1,0,101.71Q0,77,0,52.21a10.25,10.25,0,0,1,8.7-10A52.58,52.58,0,0,1,14,41.88v-1.2c0-4.41,0-8.81,0-13.22A27.87,27.87,0,0,1,33,1.52C35.15.83,37.4.5,39.59,0H44.4l1.7.29A28,28,0,0,1,70,28.44V42c1.37,0,2.57,0,3.77,0A10.4,10.4,0,0,1,83.94,52.21Q84,77,84,101.71a10.31,10.31,0,0,1-6.89,9.59C76.38,111.54,75.69,111.73,75,112ZM42,49H11.05c-2.67,0-4,1.36-4,4v47.88c0,2.73,1.35,4.07,4.1,4.07H72.87c2.75,0,4.1-1.34,4.1-4.07Q77,77,77,53.1C77,50.28,75.66,49,72.82,49Zm21-7c0-1.62,0-3.14,0-4.67-.06-4,.14-8-.25-12C61.77,15.37,52.91,7.34,42.94,7A21,21,0,0,0,21,28.15c0,4.26,0,8.53,0,12.79,0,.32,0,.63.05,1Z"/></g></g></svg>