<svg xmlns="http://www.w3.org/2000/svg" viewBox="0 0 24.39 24.39"><defs><style>.cls-1{fill:none;stroke:#9898a0;stroke-miterlimit:10;stroke-width:2px;}</style></defs><title>Asset 26</title><g id="Layer_2" data-name="Layer 2"><g id="Layer_1-2" data-name="Layer 1"><rect class="cls-1" x="1" y="1" width="22.39" height="22.39" rx="4.18"/><path class="cls-1" d="M1,5.86V5.18A4.19,4.19,0,0,1,5.18,1h14a4.19,4.19,0,0,1,4.19,4.18v.68"/><path class="cls-1" d="M16,5.35a3.8,3.8,0,0,0,3.8,3.8,3.62,3.62,0,0,0,3.59-3.8"/><path class="cls-1" d="M8.39,5.35a3.81,3.81,0,0,0,7.61,0"/><path class="cls-1" d="M1,5.35a3.62,3.62,0,0,0,3.59,3.8,3.8,3.8,0,0,0,3.8-3.8"/></g></g></svg>