<svg xmlns="http://www.w3.org/2000/svg" viewBox="0 0 23.06 23.06"><defs><style>.cls-1{fill:none;stroke:#ffaa05;stroke-miterlimit:10;stroke-width:2px;}</style></defs><title>Asset 39</title><g id="Layer_2" data-name="Layer 2"><g id="Layer_1-2" data-name="Layer 1"><path class="cls-1" d="M4.94,1H18.13a3.94,3.94,0,0,1,3.94,3.94v13.2a3.93,3.93,0,0,1-3.93,3.93H4.94A3.94,3.94,0,0,1,1,18.13V4.94A3.94,3.94,0,0,1,4.94,1Z"/><path class="cls-1" d="M1,5.58V4.94A4,4,0,0,1,4.93,1h13.2a4,4,0,0,1,3.93,3.94v.64"/><path class="cls-1" d="M15.11,5.09a3.58,3.58,0,0,0,3.58,3.58,3.4,3.4,0,0,0,3.37-3.58"/><path class="cls-1" d="M8,5.09a3.58,3.58,0,0,0,7.16,0"/><path class="cls-1" d="M1,5.09A3.41,3.41,0,0,0,4.37,8.67,3.58,3.58,0,0,0,8,5.09"/></g></g></svg>