<svg xmlns="http://www.w3.org/2000/svg" viewBox="0 0 22.97 23.44"><defs><style>.cls-1{fill:none;stroke:#ffaa05;stroke-miterlimit:10;stroke-width:2px;}</style></defs><title>Asset 38</title><g id="Layer_2" data-name="Layer 2"><g id="Layer_1-2" data-name="Layer 1"><path class="cls-1" d="M3.4,22.44H2.85s-.05,0-.08,0a1.88,1.88,0,0,1-1.41-1A3.18,3.18,0,0,1,1,19.83Q1,11.72,1,3.61a4.26,4.26,0,0,1,.17-1.18A1.93,1.93,0,0,1,3.29,1a4,4,0,0,1,1.59.5Q12.59,5.59,20.3,9.67a5.06,5.06,0,0,1,1,.7,1.69,1.69,0,0,1,.14,2.57,4.28,4.28,0,0,1-1.17.85L5.66,21.51A7.24,7.24,0,0,1,3.4,22.44Z"/></g></g></svg>