<svg xmlns="http://www.w3.org/2000/svg" viewBox="0 0 25.52 27.63"><defs><style>.cls-1{fill:none;stroke:#9898a0;stroke-miterlimit:10;stroke-width:2px;}</style></defs><title>Asset 25</title><g id="Layer_2" data-name="Layer 2"><g id="Layer_1-2" data-name="Layer 1"><path class="cls-1" d="M17.39,5.46v16.7a3.52,3.52,0,0,1-3.5,3.5H4.5A3.51,3.51,0,0,1,1,22.16V5.46A3.5,3.5,0,0,1,4.5,2h9.39A3.51,3.51,0,0,1,17.39,5.46Z"/><path class="cls-1" d="M24.38,8,19.79,24.09a3.5,3.5,0,0,1-4.32,2.4l-2.92-.83h1.34a3.52,3.52,0,0,0,3.5-3.5V5.46A3.51,3.51,0,0,0,13.89,2H9.58A3.49,3.49,0,0,1,13,1.13l9,2.59A3.5,3.5,0,0,1,24.38,8Z"/></g></g></svg>