<svg xmlns="http://www.w3.org/2000/svg" viewBox="0 0 25.48 25.49"><defs><style>.cls-1{fill:none;stroke:#ffaa05;stroke-miterlimit:10;stroke-width:2px;}</style></defs><title>Asset 40</title><g id="Layer_2" data-name="Layer 2"><g id="Layer_1-2" data-name="Layer 1"><path class="cls-1" d="M24.48,5.39V20.1a4.4,4.4,0,0,1-4.39,4.39H5.38A4.4,4.4,0,0,1,1,20.1V5.39A4.39,4.39,0,0,1,5.38,1H20.09A4.4,4.4,0,0,1,24.48,5.39Z"/><path class="cls-1" d="M24.48,5.39V6.1a13.69,13.69,0,0,1-11.74,6.64A13.68,13.68,0,0,1,1,6.1V5.39A4.39,4.39,0,0,1,5.38,1H20.09A4.4,4.4,0,0,1,24.48,5.39Z"/></g></g></svg>