<svg xmlns="http://www.w3.org/2000/svg" viewBox="0 0 23.22 33.37"><defs><style>.cls-1{fill:none;stroke:#fff;stroke-linecap:round;stroke-linejoin:round;stroke-width:2px;}</style></defs><title>Asset 32</title><g id="Layer_2" data-name="Layer 2"><g id="Layer_1-2" data-name="Layer 1"><path class="cls-1" d="M6.38,15.52a2.12,2.12,0,0,0-2,2.22,2.64,2.64,0,0,0,2.77,2.53,3.32,3.32,0,0,0,3.17-3.46,4.15,4.15,0,0,0-4.33-4,5.19,5.19,0,0,0-5,5.41,6.49,6.49,0,0,0,6.76,6.19H8c5.26-.38,9.36-6.11,6.81-10.72C13.55,11.44,10.55,9.12,4.55,1V13.11"/><polyline class="cls-1" points="4.55 23.76 4.55 32.37 22.22 22.07 14.94 19.37"/></g></g></svg>