<svg xmlns="http://www.w3.org/2000/svg" viewBox="0 0 24.98 26.77"><defs><style>.cls-1{fill:none;stroke:#ffaa05;stroke-miterlimit:10;stroke-width:2px;}</style></defs><title>Asset 36</title><g id="Layer_2" data-name="Layer 2"><g id="Layer_1-2" data-name="Layer 1"><path class="cls-1" d="M12.49,25.72a12.08,12.08,0,0,1-1.35-.08A2.61,2.61,0,0,1,9,23.13a6.5,6.5,0,0,0-.05-1,1.74,1.74,0,0,0-2.46-1.21c-.24.11-.46.26-.7.38a2.62,2.62,0,0,1-3.44-.91c-.36-.58-.7-1.17-1-1.77a2.6,2.6,0,0,1,.92-3.41c.21-.14.44-.26.66-.4a1.76,1.76,0,0,0,0-3c-.18-.12-.38-.22-.56-.33A2.63,2.63,0,0,1,1.34,8c.29-.54.61-1.09.93-1.62a2.65,2.65,0,0,1,3.54-.94,4.67,4.67,0,0,0,1.07.49A1.74,1.74,0,0,0,9,4.25a8.94,8.94,0,0,1,0-1A2.61,2.61,0,0,1,11.54,1a17.32,17.32,0,0,1,2.28.05A2.58,2.58,0,0,1,16,3.56a6.37,6.37,0,0,0,.06,1,1.73,1.73,0,0,0,2.47,1.23c.25-.12.48-.27.72-.39a2.62,2.62,0,0,1,3.4.92c.36.57.7,1.16,1,1.76a2.62,2.62,0,0,1-.93,3.43l-.61.37a1.75,1.75,0,0,0,0,3l.54.32a2.64,2.64,0,0,1,1,3.54c-.28.52-.58,1-.88,1.53a2.66,2.66,0,0,1-3.72,1,3.61,3.61,0,0,0-1-.42A1.73,1.73,0,0,0,16,22.44c0,.35,0,.71,0,1a2.62,2.62,0,0,1-2.54,2.21h-.94Zm0-16.78a4.41,4.41,0,1,0,4.41,4.42A4.42,4.42,0,0,0,12.49,8.94Z"/></g></g></svg>