<svg xmlns="http://www.w3.org/2000/svg" viewBox="0 0 24.97 25.44"><defs><style>.cls-1{fill:none;stroke:#fff;stroke-miterlimit:10;stroke-width:4px;}</style></defs><title>Asset 44</title><g id="Layer_2" data-name="Layer 2"><g id="Layer_1-2" data-name="Layer 1"><path class="cls-1" d="M4.4,23.44H3.85s-.05,0-.08,0a1.88,1.88,0,0,1-1.41-1A3.18,3.18,0,0,1,2,20.83Q2,12.72,2,4.61a4.26,4.26,0,0,1,.17-1.18A1.93,1.93,0,0,1,4.29,2a4,4,0,0,1,1.59.5q7.71,4.08,15.42,8.16a5.06,5.06,0,0,1,1,.7,1.69,1.69,0,0,1,.14,2.57,4.28,4.28,0,0,1-1.17.85L6.66,22.51A7.24,7.24,0,0,1,4.4,23.44Z"/></g></g></svg>