<svg xmlns="http://www.w3.org/2000/svg" viewBox="0 0 27.52 29.63"><defs><style>.cls-1{fill:none;stroke:#fff;stroke-miterlimit:10;stroke-width:4px;}</style></defs><title>Asset 43</title><g id="Layer_2" data-name="Layer 2"><g id="Layer_1-2" data-name="Layer 1"><path class="cls-1" d="M18.39,6.46v16.7a3.52,3.52,0,0,1-3.5,3.5H5.5A3.51,3.51,0,0,1,2,23.16V6.46A3.5,3.5,0,0,1,5.5,3h9.39A3.51,3.51,0,0,1,18.39,6.46Z"/><path class="cls-1" d="M25.38,9,20.79,25.09a3.5,3.5,0,0,1-4.32,2.4L14,26.66h.87a3.52,3.52,0,0,0,3.5-3.5V6.46A3.51,3.51,0,0,0,14.89,3H10.58A3.49,3.49,0,0,1,14,2.13l9,2.59A3.5,3.5,0,0,1,25.38,9Z"/></g></g></svg>